<?xml version="1.0" standalone="no"?><!DOCTYPE svg PUBLIC "-//W3C//DTD SVG 1.1//EN" "http://www.w3.org/Graphics/SVG/1.1/DTD/svg11.dtd"><svg t="1733919119441" class="icon" viewBox="0 0 1024 1024" version="1.1" xmlns="http://www.w3.org/2000/svg" p-id="13333" xmlns:xlink="http://www.w3.org/1999/xlink" width="200" height="200"><path d="M725.312 768H768v42.688h-42.688zM768 725.312h42.688V768H768zM768 768h42.688v42.688H768zM768 810.688h42.688v42.688H768zM810.688 768h42.688v42.688h-42.688zM810.688 810.688h42.688v42.688h-42.688zM896 810.688h42.688v42.688H896zM938.688 768h42.688v42.688h-42.688zM938.688 810.688h42.688v42.688h-42.688zM768 896h42.688v42.688H768zM768 938.688h42.688v42.688H768zM810.688 896h42.688v42.688h-42.688zM810.688 938.688h42.688v42.688h-42.688z" fill="#F8C7A9" p-id="13334"></path><path d="M853.312 853.312H896V896h-42.688zM896 853.312h42.688V896H896zM938.688 853.312h42.688V896h-42.688zM853.312 896H896v42.688h-42.688zM853.312 938.688H896v42.688h-42.688zM896 768h42.688v42.688H896z" fill="#F8C7A9" p-id="13335"></path><path d="M853.312 810.688H896v42.688h-42.688z" fill="#F8C7A9" p-id="13336"></path><path d="M810.688 853.312h42.688V896h-42.688z" fill="#F8C7A9" p-id="13337"></path><path d="M170.688 170.688h42.688v42.688h-42.688z" fill="#F18B00" p-id="13338"></path><path d="M213.312 170.688H256v42.688h-42.688zM256 170.688h42.688v42.688H256z" fill="#F18B00" p-id="13339"></path><path d="M298.688 170.688h42.688v42.688h-42.688z" fill="#EDD667" p-id="13340"></path><path d="M341.312 170.688H384v42.688h-42.688z" fill="#EDD667" p-id="13341"></path><path d="M384 170.688h42.688v42.688H384zM426.688 170.688h42.688v42.688h-42.688z" fill="#F18B00" p-id="13342"></path><path d="M469.312 170.688H512v42.688h-42.688z" fill="#EDD667" p-id="13343"></path><path d="M128 213.312h42.688V256H128zM170.688 213.312h42.688V256h-42.688z" fill="#F18B00" p-id="13344"></path><path d="M213.312 213.312H256V256h-42.688zM256 213.312h42.688V256H256zM298.688 213.312h42.688V256h-42.688z" fill="#F18B00" p-id="13345"></path><path d="M341.312 213.312H384V256h-42.688zM384 213.312h42.688V256H384zM426.688 213.312h42.688V256h-42.688z" fill="#F18B00" p-id="13346"></path><path d="M469.312 213.312H512V256h-42.688z" fill="#EDD667" p-id="13347"></path><path d="M85.312 256H128v42.688h-42.688zM128 256h42.688v42.688H128zM170.688 256h42.688v42.688h-42.688z" fill="#F18B00" p-id="13348"></path><path d="M213.312 256H256v42.688h-42.688zM256 256h42.688v42.688H256zM298.688 256h42.688v42.688h-42.688z" fill="#F18B00" p-id="13349"></path><path d="M341.312 256H384v42.688h-42.688zM384 256h42.688v42.688H384zM426.688 256h42.688v42.688h-42.688z" fill="#F18B00" p-id="13350"></path><path d="M469.312 256H512v42.688h-42.688zM42.688 298.688h42.688v42.688H42.688z" fill="#F18B00" p-id="13351"></path><path d="M85.312 298.688H128v42.688h-42.688zM128 298.688h42.688v42.688H128zM170.688 298.688h42.688v42.688h-42.688z" fill="#F18B00" p-id="13352"></path><path d="M213.312 298.688H256v42.688h-42.688z" fill="#F18B00" p-id="13353"></path><path d="M256 298.688h42.688v42.688H256zM298.688 298.688h42.688v42.688h-42.688z" fill="#EAD464" p-id="13354"></path><path d="M341.312 298.688H384v42.688h-42.688zM384 298.688h42.688v42.688H384zM426.688 298.688h42.688v42.688h-42.688z" fill="#F18B00" p-id="13355"></path><path d="M469.312 298.688H512v42.688h-42.688z" fill="#F18B00" p-id="13356"></path><path d="M512 170.688h42.688v42.688H512z" fill="#EDD667" p-id="13357"></path><path d="M512 213.312h42.688V256H512z" fill="#EDD667" p-id="13358"></path><path d="M512 256h42.688v42.688H512zM512 298.688h42.688v42.688H512zM554.688 170.688h42.688v42.688h-42.688z" fill="#F18B00" p-id="13359"></path><path d="M554.688 213.312h42.688V256h-42.688zM554.688 256h42.688v42.688h-42.688zM554.688 298.688h42.688v42.688h-42.688z" fill="#F18B00" p-id="13360"></path><path d="M597.312 213.312H640V256h-42.688zM597.312 256H640v42.688h-42.688zM597.312 298.688H640v42.688h-42.688zM213.312 42.688H256v42.688h-42.688zM256 42.688h42.688v42.688H256zM298.688 42.688h42.688v42.688h-42.688z" fill="#F18B00" p-id="13361"></path><path d="M341.312 42.688H384v42.688h-42.688zM384 42.688h42.688v42.688H384zM213.312 85.312H256V128h-42.688zM256 85.312h42.688V128H256z" fill="#F18B00" p-id="13362"></path><path d="M298.688 85.312h42.688V128h-42.688z" fill="#F18B00" p-id="13363"></path><path d="M341.312 85.312H384V128h-42.688zM384 85.312h42.688V128H384zM426.688 85.312h42.688V128h-42.688z" fill="#F18B00" p-id="13364"></path><path d="M469.312 85.312H512V128h-42.688zM682.688 469.312h42.688V512h-42.688zM682.688 512h42.688v42.688h-42.688zM682.688 554.688h42.688v42.688h-42.688z" fill="#F18B00" p-id="13365"></path><path d="M682.688 597.312h42.688V640h-42.688z" fill="#F18B00" p-id="13366"></path><path d="M725.312 554.688H768v42.688h-42.688z" fill="#F18B00" p-id="13367"></path><path d="M725.312 597.312H768V640h-42.688zM682.688 640h42.688v42.688h-42.688z" fill="#F18B00" p-id="13368"></path><path d="M725.312 640H768v42.688h-42.688zM768 597.312h42.688V640H768zM768 640h42.688v42.688H768zM682.688 682.688h42.688v42.688h-42.688z" fill="#F18B00" p-id="13369"></path><path d="M725.312 682.688H768v42.688h-42.688z" fill="#F18B00" p-id="13370"></path><path d="M682.688 725.312h42.688V768h-42.688zM42.688 384h42.688v42.688H42.688z" fill="#F18B00" p-id="13371"></path><path d="M85.312 384H128v42.688h-42.688zM128 384h42.688v42.688H128zM170.688 384h42.688v42.688h-42.688z" fill="#F18B00" p-id="13372"></path><path d="M213.312 384H256v42.688h-42.688zM256 384h42.688v42.688H256zM298.688 384h42.688v42.688h-42.688z" fill="#F18B00" p-id="13373"></path><path d="M341.312 384H384v42.688h-42.688zM384 384h42.688v42.688H384zM426.688 384h42.688v42.688h-42.688z" fill="#F18B00" p-id="13374"></path><path d="M469.312 384H512v42.688h-42.688zM85.312 426.688H128v42.688h-42.688zM128 426.688h42.688v42.688H128zM170.688 426.688h42.688v42.688h-42.688z" fill="#F18B00" p-id="13375"></path><path d="M213.312 426.688H256v42.688h-42.688zM256 426.688h42.688v42.688H256zM298.688 426.688h42.688v42.688h-42.688z" fill="#F18B00" p-id="13376"></path><path d="M341.312 426.688H384v42.688h-42.688zM384 426.688h42.688v42.688H384zM426.688 426.688h42.688v42.688h-42.688z" fill="#F18B00" p-id="13377"></path><path d="M469.312 426.688H512v42.688h-42.688zM213.312 469.312H256V512h-42.688zM298.688 469.312h42.688V512h-42.688zM384 469.312h42.688V512H384z" fill="#F18B00" p-id="13378"></path><path d="M426.688 469.312h42.688V512h-42.688zM512 384h42.688v42.688H512zM512 426.688h42.688v42.688H512z" fill="#F18B00" p-id="13379"></path><path d="M512 469.312h42.688V512H512zM213.312 512H256v42.688h-42.688zM298.688 512h42.688v42.688h-42.688zM384 512h42.688v42.688H384zM426.688 512h42.688v42.688h-42.688zM554.688 384h42.688v42.688h-42.688zM554.688 426.688h42.688v42.688h-42.688z" fill="#F18B00" p-id="13380"></path><path d="M597.312 384H640v42.688h-42.688zM597.312 426.688H640v42.688h-42.688z" fill="#F18B00" p-id="13381"></path><path d="M597.312 469.312H640V512h-42.688zM554.688 512h42.688v42.688h-42.688z" fill="#F18B00" p-id="13382"></path><path d="M597.312 512H640v42.688h-42.688zM128 554.688h42.688v42.688H128zM213.312 554.688H256v42.688h-42.688zM298.688 554.688h42.688v42.688h-42.688zM384 554.688h42.688v42.688H384zM426.688 554.688h42.688v42.688h-42.688z" fill="#F18B00" p-id="13383"></path><path d="M213.312 597.312H256V640h-42.688zM298.688 597.312h42.688V640h-42.688zM426.688 597.312h42.688V640h-42.688zM512 554.688h42.688v42.688H512z" fill="#F18B00" p-id="13384"></path><path d="M512 597.312h42.688V640H512zM341.312 640H384v42.688h-42.688zM384 640h42.688v42.688H384zM426.688 640h42.688v42.688h-42.688z" fill="#F18B00" p-id="13385"></path><path d="M469.312 640H512v42.688h-42.688zM512 640h42.688v42.688H512zM597.312 554.688H640v42.688h-42.688z" fill="#F18B00" p-id="13386"></path><path d="M597.312 597.312H640V640h-42.688zM554.688 640h42.688v42.688h-42.688z" fill="#F18B00" p-id="13387"></path><path d="M597.312 640H640v42.688h-42.688zM469.312 682.688H512v42.688h-42.688zM512 682.688h42.688v42.688H512zM554.688 682.688h42.688v42.688h-42.688z" fill="#F18B00" p-id="13388"></path><path d="M597.312 682.688H640v42.688h-42.688z" fill="#F18B00" p-id="13389"></path><path d="M554.688 725.312h42.688V768h-42.688z" fill="#F18B00" p-id="13390"></path><path d="M597.312 725.312H640V768h-42.688zM170.688 42.688h42.688v42.688h-42.688z" fill="#F18B00" p-id="13391"></path><path d="M170.688 85.312h42.688V128h-42.688zM170.688 128h42.688v42.688h-42.688z" fill="#F18B00" p-id="13392"></path><path d="M213.312 128H256v42.688h-42.688zM256 128h42.688v42.688H256z" fill="#F18B00" p-id="13393"></path><path d="M298.688 128h42.688v42.688h-42.688z" fill="#EDD667" p-id="13394"></path><path d="M341.312 128H384v42.688h-42.688z" fill="#EDD667" p-id="13395"></path><path d="M384 128h42.688v42.688H384zM426.688 128h42.688v42.688h-42.688z" fill="#F18B00" p-id="13396"></path><path d="M469.312 128H512v42.688h-42.688zM128 170.688h42.688v42.688H128zM85.312 170.688H128v42.688h-42.688z" fill="#F18B00" p-id="13397"></path><path d="M85.312 213.312H128V256h-42.688zM42.688 256h42.688v42.688H42.688z" fill="#F18B00" p-id="13398"></path><path d="M42.688 213.312h42.688V256H42.688z" fill="#F18B00" p-id="13399"></path><path d="M42.688 170.688h42.688v42.688H42.688zM85.312 128H128v42.688h-42.688zM85.312 85.312H128V128h-42.688zM128 128h42.688v42.688H128zM128 85.312h42.688V128H128zM42.688 341.312h42.688V384H42.688z" fill="#F18B00" p-id="13400"></path><path d="M85.312 341.312H128V384h-42.688zM128 341.312h42.688V384H128zM170.688 341.312h42.688V384h-42.688z" fill="#F18B00" p-id="13401"></path><path d="M213.312 341.312H256V384h-42.688z" fill="#F18B00" p-id="13402"></path><path d="M256 341.312h42.688V384H256zM298.688 341.312h42.688V384h-42.688z" fill="#EAD464" p-id="13403"></path><path d="M341.312 341.312H384V384h-42.688zM384 341.312h42.688V384H384zM426.688 341.312h42.688V384h-42.688z" fill="#F18B00" p-id="13404"></path><path d="M469.312 341.312H512V384h-42.688zM512 128h42.688v42.688H512zM512 341.312h42.688V384H512zM554.688 128h42.688v42.688h-42.688zM554.688 341.312h42.688V384h-42.688z" fill="#F18B00" p-id="13405"></path><path d="M597.312 341.312H640V384h-42.688zM640 298.688h42.688v42.688H640z" fill="#F18B00" p-id="13406"></path><path d="M640 341.312h42.688V384H640zM640 384h42.688v42.688H640zM640 426.688h42.688v42.688H640z" fill="#F18B00" p-id="13407"></path><path d="M640 469.312h42.688V512H640zM640 512h42.688v42.688H640zM640 554.688h42.688v42.688H640z" fill="#F18B00" p-id="13408"></path><path d="M640 597.312h42.688V640H640zM640 640h42.688v42.688H640zM640 682.688h42.688v42.688H640z" fill="#F18B00" p-id="13409"></path><path d="M640 725.312h42.688V768H640zM85.312 469.312H128V512h-42.688zM128 469.312h42.688V512H128zM170.688 469.312h42.688V512h-42.688zM256 469.312h42.688V512H256zM341.312 469.312H384V512h-42.688zM469.312 469.312H512V512h-42.688zM128 512h42.688v42.688H128zM170.688 512h42.688v42.688h-42.688zM256 512h42.688v42.688H256zM341.312 512H384v42.688h-42.688zM469.312 512H512v42.688h-42.688zM512 512h42.688v42.688H512zM554.688 469.312h42.688V512h-42.688zM170.688 554.688h42.688v42.688h-42.688zM256 554.688h42.688v42.688H256zM341.312 554.688H384v42.688h-42.688zM469.312 554.688H512v42.688h-42.688z" fill="#F18B00" p-id="13410"></path><path d="M256 597.312h42.688V640H256zM341.312 597.312H384V640h-42.688zM384 597.312h42.688V640H384zM469.312 597.312H512V640h-42.688zM554.688 554.688h42.688v42.688h-42.688z" fill="#F18B00" p-id="13411"></path><path d="M554.688 597.312h42.688V640h-42.688z" fill="#F18B00" p-id="13412"></path><path d="M597.312 170.688H640v42.624h-42.688zM640 213.312h42.688V256H640zM640 256h42.688v42.688H640zM426.688 42.688h42.688v42.688h-42.688z" p-id="13413"></path><path d="M469.312 42.688H512v42.688h-42.688zM512 85.312h42.688V128H512zM554.688 85.312h42.688V128h-42.688zM682.688 298.688h42.688v42.688h-42.688zM682.688 384h42.688v42.688h-42.688zM682.688 426.688h42.688v42.688h-42.688z" p-id="13414"></path><path d="M725.312 469.312H768V512h-42.688zM725.312 512H768v42.688h-42.688zM768 554.688h42.688v42.688H768zM768 682.688h42.688v42.688H768zM725.312 725.312H768V768h-42.688zM810.688 597.312h42.688V640h-42.688zM810.688 640h42.688v42.688h-42.688zM810.688 725.312h42.688V768h-42.688zM853.312 768H896v42.688h-42.688zM896 725.312h42.688V768H896zM42.688 426.688h42.688v42.688H42.688z" p-id="13415"></path><path d="M42.688 469.312h42.688V512H42.688zM128 597.312h42.688V640H128zM213.312 640H256v42.688h-42.688zM256 640h42.688v42.688H256zM298.688 640h42.688v42.688h-42.688zM341.312 682.688H384v42.688h-42.688zM384 682.688h42.688v42.688H384zM426.688 682.688h42.688v42.688h-42.688z" p-id="13416"></path><path d="M469.312 725.312H512V768h-42.688zM512 725.312h42.688V768H512zM597.312 768H640v42.688h-42.688zM725.888 895.488h42.688v42.688h-42.688z" p-id="13417"></path><path d="M725.888 938.112h42.688v42.688h-42.688zM896.576 895.488h42.688v42.688h-42.688z" p-id="13418"></path><path d="M896.576 938.112h42.688v42.688h-42.688z" p-id="13419"></path><path d="M939.2 895.488h42.688v42.688h-42.688zM554.688 768h42.688v42.688h-42.688zM682.688 768h42.688v42.688h-42.688zM725.888 810.112h42.688v42.688h-42.688zM938.688 725.312h42.688V768h-42.688zM768.576 852.8h42.688v42.688h-42.688zM213.312 0H256v42.688h-42.688zM256 0h42.688v42.688H256zM298.688 0h42.688v42.688h-42.688z" p-id="13420"></path><path d="M341.312 0H384v42.688h-42.688zM384 0h42.688v42.688H384zM170.688 0h42.688v42.688h-42.688zM0 298.688h42.688v42.688H0zM0 256h42.688v42.688H0zM0 213.312h42.688V256H0z" p-id="13421"></path><path d="M0 170.688h42.688v42.688H0zM42.688 128h42.688v42.688H42.688zM42.688 85.312h42.688V128H42.688z" p-id="13422"></path><path d="M85.312 42.688H128v42.688h-42.688zM128 42.688h42.688v42.688H128zM0 341.312h42.688V384H0zM0 384h42.688v42.688H0zM597.312 128H640v42.688h-42.688zM682.688 341.312h42.688V384h-42.688zM640 768h42.688v42.688H640zM981.888 767.488h42.688v42.688h-42.688z" p-id="13423"></path><path d="M981.888 810.112h42.688v42.688h-42.688zM768.576 980.8h42.688v42.688h-42.688z" p-id="13424"></path><path d="M811.2 980.8h42.688v42.688h-42.688zM853.888 980.8h42.688v42.688h-42.688zM981.888 852.8h42.688v42.688h-42.688zM85.312 512H128v42.688h-42.688zM85.312 554.688H128v42.688h-42.688zM170.688 597.312h42.688V640h-42.688z" p-id="13425"></path></svg>